<svg width="149" height="28" viewBox="0 0 149 28" fill="none" xmlns="http://www.w3.org/2000/svg">
<path d="M16.2618 3.01221C17.8963 3.01221 19.4076 3.88149 20.2295 5.29444L24.1002 11.9498C24.9302 13.3764 24.9302 15.1386 24.1002 16.5652L20.2295 23.2206C19.4076 24.6335 17.8963 25.5028 16.2618 25.5028H8.46089C6.82633 25.5028 5.3151 24.6335 4.49329 23.2206L0.622308 16.5652C-0.207437 15.1386 -0.207435 13.3764 0.62231 11.9498L4.49329 5.29444C5.3151 3.88149 6.82633 3.01221 8.46089 3.01221H16.2618Z" fill="#20AD96"/>
<path d="M7.83154 19.4785L10.3508 16.9593H16.229C16.4517 16.9593 16.6653 16.8708 16.8228 16.7133C16.9803 16.5559 17.0687 16.3423 17.0687 16.1195V11.0811C17.0687 10.8584 16.9803 10.6448 16.8228 10.4873C16.6653 10.3298 16.4517 10.2413 16.229 10.2413H8.67128C8.44857 10.2413 8.23499 10.3298 8.07749 10.4873C7.92002 10.6448 7.83154 10.8584 7.83154 11.0811V19.4785Z" stroke="white" stroke-width="1.60647" stroke-linecap="round" stroke-linejoin="round"/>
<path d="M36.4159 19.4784H34.0648V8.02797H36.4159V12.8143H41.3702V8.02797H43.7213V19.4784H41.3702V14.8677H36.4159V19.4784ZM51.7753 19.4784H49.8671L49.7526 18.57C49.4727 18.9059 49.1265 19.168 48.7144 19.3563C48.3022 19.5395 47.8491 19.6311 47.3555 19.6311C46.8212 19.6311 46.3453 19.5293 45.928 19.3257C45.5107 19.1171 45.1826 18.8321 44.9432 18.4708C44.7041 18.1044 44.5846 17.6896 44.5846 17.2265C44.5846 16.7379 44.7143 16.3079 44.9739 15.9364C45.2334 15.5649 45.5896 15.2748 46.0427 15.0662C46.5005 14.8524 47.0196 14.7456 47.5997 14.7456C47.9407 14.7456 48.2817 14.7837 48.6226 14.8601C48.9688 14.9364 49.2893 15.0433 49.5845 15.1807V14.9822C49.5845 14.6769 49.498 14.4148 49.3251 14.196C49.157 13.972 48.9231 13.799 48.6226 13.6769C48.3277 13.5547 47.9967 13.4936 47.6304 13.4936C47.2792 13.4936 46.9306 13.5496 46.5846 13.6616C46.2437 13.7735 45.928 13.9415 45.638 14.1654L45.0426 12.4936C45.5565 12.229 46.0756 12.0305 46.5999 11.8982C47.129 11.7608 47.6405 11.6921 48.1343 11.6921C48.8773 11.6921 49.5209 11.8397 50.0655 12.1349C50.61 12.4249 51.0299 12.8372 51.3251 13.3715C51.6253 13.9008 51.7753 14.5293 51.7753 15.257V19.4784ZM47.8365 17.9441C48.1264 17.9441 48.404 17.8804 48.6686 17.7532C48.9331 17.626 49.147 17.453 49.3098 17.2341C49.4777 17.0153 49.5668 16.7736 49.5769 16.5089V16.4555C49.353 16.3028 49.1036 16.1858 48.8289 16.1044C48.5592 16.0178 48.2843 15.9746 48.0043 15.9746C47.5871 15.9746 47.2461 16.0662 46.9814 16.2494C46.7168 16.4326 46.5846 16.6692 46.5846 16.9593C46.5846 17.1476 46.6381 17.3181 46.7449 17.4708C46.8567 17.6184 47.0069 17.7354 47.1953 17.8219C47.3835 17.9033 47.5973 17.9441 47.8365 17.9441ZM55.0586 23.2952H52.8601V11.8448H54.7836L54.8981 12.883C55.2238 12.5114 55.6132 12.2214 56.0662 12.0127C56.5241 11.799 57.0229 11.6921 57.5622 11.6921C58.2647 11.6921 58.888 11.8651 59.4326 12.2112C59.9772 12.5522 60.4071 13.0229 60.7226 13.6234C61.0382 14.2188 61.1959 14.8982 61.1959 15.6616C61.1959 16.4199 61.0382 17.0993 60.7226 17.6998C60.4071 18.3003 59.9772 18.7736 59.4326 19.1196C58.888 19.4606 58.2647 19.6311 57.5622 19.6311C57.0636 19.6311 56.6006 19.542 56.173 19.3639C55.7505 19.1807 55.379 18.9288 55.0586 18.6082V23.2952ZM57.005 17.6616C57.3867 17.6616 57.7227 17.5776 58.0126 17.4097C58.3028 17.2367 58.5293 17 58.6922 16.6998C58.8601 16.3944 58.944 16.0484 58.944 15.6616C58.944 15.2697 58.8601 14.9237 58.6922 14.6234C58.5293 14.3232 58.3028 14.0865 58.0126 13.9135C57.7227 13.7405 57.3893 13.6539 57.0126 13.6539C56.6564 13.6539 56.3359 13.7328 56.051 13.8906C55.7658 14.0433 55.5343 14.257 55.3562 14.5318C55.1833 14.8066 55.0839 15.1222 55.0586 15.4784V15.8601C55.0839 16.2061 55.1833 16.5166 55.3562 16.7914C55.5292 17.0611 55.7582 17.2748 56.0433 17.4326C56.3283 17.5853 56.6488 17.6616 57.005 17.6616ZM64.1584 23.2952H61.9599V11.8448H63.8835L63.9982 12.883C64.3239 12.5114 64.713 12.2214 65.1661 12.0127C65.6241 11.799 66.1227 11.6921 66.6623 11.6921C67.3645 11.6921 67.988 11.8651 68.5324 12.2112C69.077 12.5522 69.5069 13.0229 69.8226 13.6234C70.1381 14.2188 70.2959 14.8982 70.2959 15.6616C70.2959 16.4199 70.1381 17.0993 69.8226 17.6998C69.5069 18.3003 69.077 18.7736 68.5324 19.1196C67.988 19.4606 67.3645 19.6311 66.6623 19.6311C66.1635 19.6311 65.7004 19.542 65.2729 19.3639C64.8506 19.1807 64.4791 18.9288 64.1584 18.6082V23.2952ZM66.105 17.6616C66.4866 17.6616 66.8225 17.5776 67.1127 17.4097C67.4027 17.2367 67.6292 17 67.792 16.6998C67.9599 16.3944 68.0438 16.0484 68.0438 15.6616C68.0438 15.2697 67.9599 14.9237 67.792 14.6234C67.6292 14.3232 67.4027 14.0865 67.1127 13.9135C66.8225 13.7405 66.4892 13.6539 66.1127 13.6539C65.7564 13.6539 65.4357 13.7328 65.1508 13.8906C64.8658 14.0433 64.6343 14.257 64.4562 14.5318C64.2831 14.8066 64.1839 15.1222 64.1584 15.4784V15.8601C64.1839 16.2061 64.2831 16.5166 64.4562 16.7914C64.6291 17.0611 64.8582 17.2748 65.1432 17.4326C65.4281 17.5853 65.7488 17.6616 66.105 17.6616ZM74.8079 23.2952H72.4721L74.0599 19.4708L70.2047 11.8448H72.6781L75.098 16.9746L77.2202 11.8448H79.5484L74.8079 23.2952ZM92.9086 18.0433C92.3742 18.5624 91.7405 18.9695 91.0077 19.2647C90.275 19.5598 89.4784 19.7074 88.6185 19.7074C87.7482 19.7074 86.9466 19.5598 86.2138 19.2647C85.4811 18.9644 84.8423 18.5471 84.2977 18.0128C83.7583 17.4733 83.3384 16.8423 83.0382 16.1196C82.738 15.397 82.5878 14.6082 82.5878 13.7532C82.5878 12.8982 82.738 12.1094 83.0382 11.3868C83.3384 10.659 83.7583 10.028 84.2977 9.49363C84.8423 8.95926 85.4811 8.54451 86.2138 8.24934C86.9466 7.94909 87.7482 7.79895 88.6185 7.79895C89.4733 7.79895 90.2647 7.94655 90.9925 8.24171C91.7252 8.53688 92.359 8.94655 92.8933 9.47072L91.2521 11.1196C90.9314 10.7277 90.5394 10.4198 90.0764 10.1959C89.6183 9.96692 89.1197 9.8524 88.5801 9.8524C88.0663 9.8524 87.5904 9.95164 87.1528 10.1501C86.7203 10.3435 86.3411 10.6183 86.0154 10.9746C85.6897 11.3257 85.4377 11.7379 85.2596 12.2112C85.0815 12.6845 84.9925 13.1959 84.9925 13.7456C84.9925 14.3054 85.0815 14.8219 85.2596 15.2952C85.4377 15.7685 85.6897 16.1832 86.0154 16.5395C86.3411 16.8906 86.7203 17.1654 87.1528 17.3639C87.5904 17.5573 88.0663 17.654 88.5801 17.654C89.1197 17.654 89.6183 17.542 90.0764 17.3181C90.5344 17.0891 90.9238 16.7787 91.2443 16.3868L92.9086 18.0433ZM97.2832 19.6311C96.4994 19.6311 95.7972 19.4606 95.1763 19.1196C94.5554 18.7736 94.0668 18.3028 93.7106 17.7074C93.3596 17.1069 93.1839 16.425 93.1839 15.6616C93.1839 14.9033 93.3596 14.2265 93.7106 13.6311C94.0668 13.0305 94.5554 12.5573 95.1763 12.2112C95.7972 11.8651 96.4994 11.6921 97.2832 11.6921C98.0669 11.6921 98.7641 11.8651 99.3748 12.2112C99.9905 12.5573 100.474 13.0305 100.825 13.6311C101.181 14.2265 101.36 14.9033 101.36 15.6616C101.36 16.425 101.181 17.1069 100.825 17.7074C100.474 18.3028 99.9905 18.7736 99.3748 19.1196C98.7641 19.4606 98.0669 19.6311 97.2832 19.6311ZM97.2756 17.6693C97.6268 17.6693 97.9396 17.5827 98.2145 17.4097C98.4945 17.2316 98.7132 16.9924 98.871 16.6921C99.0338 16.3868 99.1152 16.0382 99.1152 15.6463C99.1152 15.2697 99.0338 14.9313 98.871 14.6311C98.7132 14.3308 98.4945 14.0942 98.2145 13.9211C97.9396 13.743 97.6268 13.6539 97.2756 13.6539C96.9193 13.6539 96.6012 13.743 96.3213 13.9211C96.0466 14.0942 95.8277 14.3308 95.6649 14.6311C95.507 14.9313 95.4281 15.2697 95.4281 15.6463C95.4281 16.0382 95.507 16.3868 95.6649 16.6921C95.8277 16.9924 96.0466 17.2316 96.3213 17.4097C96.6012 17.5827 96.9193 17.6693 97.2756 17.6693ZM108.94 19.4784H107.032L106.917 18.57C106.637 18.9059 106.291 19.168 105.879 19.3563C105.467 19.5395 105.014 19.6311 104.521 19.6311C103.986 19.6311 103.51 19.5293 103.093 19.3257C102.676 19.1171 102.347 18.8321 102.108 18.4708C101.869 18.1044 101.749 17.6896 101.749 17.2265C101.749 16.7379 101.879 16.3079 102.139 15.9364C102.398 15.5649 102.755 15.2748 103.207 15.0662C103.665 14.8524 104.185 14.7456 104.765 14.7456C105.106 14.7456 105.447 14.7837 105.788 14.8601C106.134 14.9364 106.454 15.0433 106.75 15.1807V14.9822C106.75 14.6769 106.663 14.4148 106.49 14.196C106.322 13.972 106.088 13.799 105.788 13.6769C105.492 13.5547 105.162 13.4936 104.795 13.4936C104.444 13.4936 104.096 13.5496 103.749 13.6616C103.408 13.7735 103.093 13.9415 102.803 14.1654L102.207 12.4936C102.721 12.229 103.241 12.0305 103.765 11.8982C104.294 11.7608 104.805 11.6921 105.299 11.6921C106.042 11.6921 106.686 11.8397 107.23 12.1349C107.775 12.4249 108.195 12.8372 108.49 13.3715C108.79 13.9008 108.94 14.5293 108.94 15.257V19.4784ZM105.001 17.9441C105.291 17.9441 105.569 17.8804 105.833 17.7532C106.098 17.626 106.312 17.453 106.475 17.2341C106.643 17.0153 106.732 16.7736 106.742 16.5089V16.4555C106.518 16.3028 106.269 16.1858 105.994 16.1044C105.724 16.0178 105.449 15.9746 105.169 15.9746C104.752 15.9746 104.411 16.0662 104.146 16.2494C103.882 16.4326 103.749 16.6692 103.749 16.9593C103.749 17.1476 103.803 17.3181 103.91 17.4708C104.022 17.6184 104.172 17.7354 104.36 17.8219C104.548 17.9033 104.762 17.9441 105.001 17.9441ZM116.788 18.2647C116.417 18.6922 115.961 19.028 115.422 19.2723C114.882 19.5115 114.29 19.6311 113.643 19.6311C112.86 19.6311 112.157 19.4606 111.536 19.1196C110.921 18.7736 110.435 18.3003 110.078 17.6998C109.727 17.0993 109.552 16.4199 109.552 15.6616C109.552 14.8982 109.727 14.2188 110.078 13.6234C110.435 13.0229 110.921 12.5522 111.536 12.2112C112.157 11.8651 112.86 11.6921 113.643 11.6921C114.284 11.6921 114.875 11.8117 115.414 12.0509C115.954 12.2901 116.409 12.6209 116.781 13.0433L115.491 14.3944C115.292 14.1654 115.04 13.9873 114.735 13.8601C114.435 13.7277 114.119 13.6616 113.788 13.6616C113.407 13.6616 113.066 13.7481 112.765 13.9211C112.465 14.0891 112.229 14.3232 112.055 14.6234C111.882 14.9186 111.796 15.2596 111.796 15.6463C111.796 16.0382 111.882 16.3868 112.055 16.6921C112.229 16.9975 112.465 17.2367 112.765 17.4097C113.066 17.5776 113.407 17.6616 113.788 17.6616C114.119 17.6616 114.437 17.598 114.742 17.4708C115.048 17.3385 115.297 17.1578 115.491 16.9288L116.788 18.2647ZM117.506 19.4784V8.02797H119.697V12.7455C120.247 12.0433 121.036 11.6921 122.064 11.6921C123.026 11.6921 123.776 11.9898 124.316 12.5852C124.855 13.1756 125.125 14.0026 125.125 15.0662V19.4784H122.934V15.6463C122.934 15.0102 122.794 14.5191 122.514 14.173C122.234 13.827 121.842 13.6539 121.339 13.6539C120.825 13.6539 120.423 13.8295 120.132 14.1807C119.842 14.5318 119.697 15.0204 119.697 15.6463V19.4784H117.506ZM127.316 10.0204C127.026 10.0204 126.782 9.91857 126.584 9.71501C126.385 9.51145 126.286 9.26461 126.286 8.97454C126.286 8.68446 126.385 8.44019 126.584 8.24171C126.782 8.03815 127.026 7.93636 127.316 7.93636C127.612 7.93636 127.858 8.03815 128.057 8.24171C128.26 8.44019 128.362 8.68446 128.362 8.97454C128.362 9.26461 128.26 9.51145 128.057 9.71501C127.858 9.91857 127.612 10.0204 127.316 10.0204ZM128.416 19.4784H126.225V11.8448H128.416V19.4784ZM137.294 19.4784H135.103V15.57C135.103 14.9746 134.961 14.5089 134.676 14.173C134.396 13.8321 134.012 13.6616 133.523 13.6616C133.014 13.6616 132.61 13.8397 132.309 14.196C132.014 14.5471 131.867 15.0255 131.867 15.6311V19.4784H129.676V11.8448H131.447L131.523 13.0662C131.798 12.6183 132.157 12.2774 132.599 12.0433C133.042 11.8092 133.564 11.6921 134.164 11.6921C135.136 11.6921 135.9 11.9924 136.455 12.5929C137.014 13.1883 137.294 14.0127 137.294 15.0662V19.4784ZM141.501 19.57C140.814 19.57 140.198 19.3995 139.654 19.0586C139.109 18.7125 138.681 18.2443 138.371 17.654C138.061 17.0586 137.905 16.3843 137.905 15.6311C137.905 14.8728 138.061 14.1985 138.371 13.6082C138.681 13.0178 139.109 12.5522 139.654 12.2112C140.198 11.8651 140.816 11.6921 141.508 11.6921C142.048 11.6921 142.542 11.799 142.989 12.0127C143.442 12.2214 143.832 12.5114 144.157 12.883L144.257 11.8448H146.18V19.2647C146.18 20.1096 145.995 20.8449 145.623 21.4708C145.257 22.1018 144.737 22.5879 144.066 22.9289C143.394 23.2749 142.608 23.448 141.707 23.448C140.455 23.448 139.32 23.056 138.302 22.2723L139.188 20.4861C139.865 21.1528 140.654 21.4861 141.554 21.4861C142.038 21.4861 142.46 21.3893 142.822 21.1959C143.188 21.0026 143.473 20.7329 143.676 20.3869C143.885 20.0408 143.989 19.6387 143.989 19.1807V18.5547C143.674 18.8703 143.305 19.1196 142.883 19.3029C142.46 19.481 142 19.57 141.501 19.57ZM142.066 17.6158C142.422 17.6158 142.745 17.5395 143.035 17.3868C143.325 17.229 143.557 17.0128 143.73 16.7379C143.903 16.458 143.989 16.1425 143.989 15.7914V15.4631C143.989 15.112 143.9 14.799 143.722 14.5242C143.549 14.2494 143.318 14.0356 143.028 13.883C142.743 13.7252 142.422 13.6463 142.066 13.6463C141.699 13.6463 141.371 13.7328 141.081 13.9059C140.791 14.0789 140.562 14.3155 140.394 14.6158C140.226 14.911 140.142 15.2494 140.142 15.6311C140.142 16.0127 140.226 16.3537 140.394 16.654C140.562 16.9542 140.791 17.1909 141.081 17.3639C141.371 17.5318 141.699 17.6158 142.066 17.6158Z" fill="#333461"/>
</svg>
