<svg width="312" height="266" viewBox="0 0 312 266" fill="none" xmlns="http://www.w3.org/2000/svg">
<path d="M142.965 219L144.135 222.82H147.929L144.858 225.18L146.036 229L142.965 226.639L139.893 229L141.072 225.18L138 222.82H141.794L142.965 219ZM154.804 222.82H151.018L154.081 225.18L152.911 229L155.983 226.639L159.046 229L157.876 225.18L160.947 222.82H157.17L156 219L154.804 222.82ZM167.822 222.82H164.054L167.125 225.18L165.955 229L169.018 226.639L172.09 229L170.937 225.18L174 222.82H170.163L168.992 219L167.822 222.82Z" fill="#1C413A"/>
<path d="M119.255 51.0576C119.255 51.0576 123.559 41.3347 133.243 42.1966C142.927 43.0586 145.811 37.8868 145.811 37.8868C145.811 37.8868 148.11 52.885 136.669 54.471C127.106 55.807 123.826 49.3423 119.255 51.0576ZM116.578 48.4114C124.394 45.1963 121.605 31.3618 117.215 29C117.43 31.5859 113.772 37.1542 106.506 41.4381C99.2411 45.7221 101.798 56.9534 101.798 56.9534C103.941 53.4539 108.753 51.6265 116.578 48.4114ZM96.8825 56.9879C103.459 51.6868 98.4061 39.0505 92.6645 37.6541C93.5942 40.059 91.6832 46.4461 85.9157 52.6264C80.1482 58.8066 85.8038 68.8744 85.8038 68.8744C86.854 64.8749 90.2887 62.2976 96.8825 56.9879ZM80.3979 68.8744C85.6661 62.2545 78.6763 50.1956 72.6506 50.1956C74.0881 52.3419 73.6061 58.9877 69.3278 66.2799C65.0496 73.5721 72.7711 82.1572 72.7711 82.1572C72.9174 78.0284 75.1297 75.4856 80.3979 68.8744ZM116.896 70.3914C122.061 66.5298 131.349 68.995 131.349 68.995C131.349 68.995 130.816 57.5223 119.789 55.4881C108.762 53.4539 102.435 59.7979 102.435 59.7979C107.47 59.1773 113.789 63.8491 116.896 70.3828V70.3914ZM103.166 78.5197C107.212 73.5203 116.845 73.6238 116.845 73.6238C116.845 73.6238 113.522 62.6338 102.331 63.3578C91.1409 64.0818 86.5527 71.7705 86.5527 71.7705C91.2786 69.9087 98.5611 72.9687 103.166 78.5197ZM89.8496 89.3459C92.2341 83.3726 101.471 80.6229 101.471 80.6229C101.471 80.6229 95.0576 71.1413 84.5728 75.115C74.0881 79.0886 72.0136 87.8548 72.0136 87.8548C75.9561 84.6741 83.7981 85.4154 89.8496 89.3459ZM66.7023 86.0188C71.0667 78.7697 63.7067 67.7452 56.5361 68.6071C58.2577 70.5466 58.6365 77.2268 55.3396 84.9844C52.0427 92.7421 60.823 100.31 60.823 100.31C60.427 96.2416 62.3466 93.3023 66.7023 86.0532V86.0188ZM56.8546 106.352C59.5404 98.3276 49.9681 89.1736 43.1505 91.5698C45.2422 93.0869 47.0672 99.4912 45.5435 107.809C44.0199 116.127 54.1947 121.583 54.1947 121.583C52.9293 117.653 54.1689 114.403 56.8546 106.387V106.352ZM52.387 128.479C53.4802 120.083 42.3499 112.964 36.1176 116.601C38.4504 117.687 41.4719 123.626 41.5666 132.116C41.6613 140.607 52.6883 143.934 52.6883 143.934C50.6912 140.288 51.2852 136.866 52.387 128.479ZM53.1187 152.373C51.595 144.046 38.812 140.659 34 146.054C36.5824 146.373 41.2394 151.097 43.9166 159.122C46.5937 167.147 58.12 166.974 58.12 166.974C55.1072 164.138 54.6337 160.699 53.1187 152.373ZM60.7197 175.956C57.0268 168.336 43.8047 168.509 40.611 174.999C43.1935 174.62 48.9437 177.913 53.661 184.92C58.3783 191.928 69.4311 188.661 69.4311 188.661C65.7899 186.748 64.4126 183.558 60.7197 175.956ZM74.2517 196.789C68.7597 190.351 56.0024 193.85 54.539 200.936C56.9149 199.927 63.3366 201.66 69.6808 207.254C76.025 212.848 85.8899 206.9 85.8899 206.9C81.8785 205.961 79.7609 203.228 74.2517 196.789ZM90.4694 213.012C83.0922 208.866 72.3235 216.554 73.3909 223.709C75.2761 221.942 81.8957 221.347 89.7463 224.407C97.597 227.467 104.845 218.476 104.845 218.476C100.782 218.985 97.838 217.158 90.4694 213.012ZM111.706 223.295C103.692 220.605 94.5497 230.191 96.9341 237C98.4492 234.914 104.845 233.087 113.152 234.612C121.459 236.138 126.873 225.993 126.873 225.993C122.948 227.26 119.711 225.984 111.706 223.295ZM78.5988 103.999C78.7107 97.5691 86.3461 91.7163 86.3461 91.7163C86.3461 91.7163 76.9718 85.0965 68.5961 92.5783C60.2204 100.06 61.3309 108.956 61.3309 108.956C63.9391 104.508 71.5315 102.405 78.5988 103.999ZM72.8227 122.325C71.8758 115.963 78.4611 108.921 78.4611 108.921C78.4611 108.921 68.1313 103.948 61.0984 112.696C54.0656 121.445 56.6308 130.022 56.6308 130.022C58.4471 125.247 65.6005 121.919 72.8227 122.29V122.325ZM70.2919 140.297C66.9864 134.789 70.3694 125.755 70.3694 125.755C70.3694 125.755 58.9206 125.135 55.7786 135.918C52.6366 146.701 58.2922 153.631 58.2922 153.631C58.1544 148.554 63.4829 142.736 70.2919 140.297ZM73.959 158.398C68.7941 154.519 68.6133 144.874 68.6133 144.874C68.6133 144.874 57.7499 148.554 58.8517 159.734C59.9535 170.913 67.7783 175.249 67.7783 175.249C65.764 170.612 68.5703 163.225 73.959 158.424V158.398ZM83.2041 174.318C77.4969 171.353 75.672 161.88 75.672 161.88C75.672 161.88 65.5747 167.336 68.5359 178.171C71.4971 189.006 79.9331 191.962 79.9331 191.962C77.1785 187.704 78.6849 179.955 83.2041 174.318ZM94.9629 189.178C89.4881 187.454 86.3547 179.43 86.3547 179.43C86.3547 179.43 78.3406 185.808 82.6446 194.867C86.9487 203.927 94.8251 205.211 94.8251 205.211C91.8123 201.892 91.8811 194.85 94.9801 189.178H94.9629ZM108.09 199.522C102.478 199.22 97.6056 192.342 97.6056 192.342C97.6056 192.342 91.5368 200.332 97.8036 207.857C104.07 215.382 111.852 214.753 111.852 214.753C108.168 212.339 106.524 205.625 108.107 199.496L108.09 199.522ZM123.06 206.418C117.68 207.107 111.869 201.41 111.869 201.41C111.869 201.41 107.488 210.029 114.753 216.158C122.018 222.286 129.292 220.243 129.292 220.243C125.324 218.64 122.638 212.538 123.077 206.435L123.06 206.418Z" fill="#20AD96"/>
<path d="M175.322 54.4849C163.884 52.8985 166.191 37.8973 166.191 37.8973C166.191 37.8973 169.039 43.0701 178.748 42.208C188.456 41.3458 192.742 51.0708 192.742 51.0708C188.232 49.3379 184.867 55.8039 175.322 54.4849ZM210.197 56.9851C210.197 56.9851 212.779 45.7255 205.48 41.4665C198.182 37.2076 194.584 31.5864 194.791 29C190.401 31.3623 187.621 45.1996 195.436 48.4154C203.251 51.6312 208.071 53.4503 210.214 56.9851H210.197ZM226.179 68.874C226.179 68.874 231.834 58.8042 226.067 52.6226C220.301 46.4411 218.39 40.0526 219.328 37.6473C213.588 39.0439 208.527 51.6829 215.111 56.9851C221.695 62.2872 225.146 64.8737 226.196 68.874H226.179ZM239.227 82.1596C239.227 82.1596 246.973 73.5382 242.67 66.279C238.366 59.0197 237.91 52.3381 239.347 50.1914C233.323 50.1914 226.334 62.2614 231.601 68.874C236.869 75.4866 239.081 78.0299 239.244 82.1596H239.227ZM209.551 59.7439C209.551 59.7439 203.234 53.4158 192.209 55.4332C181.183 57.4506 180.641 68.943 180.641 68.943C180.641 68.943 189.954 66.529 195.118 70.3827C198.216 63.8477 204.533 59.1749 209.568 59.7784L209.551 59.7439ZM225.43 71.7363C225.43 71.7363 220.852 64.046 209.663 63.3218C198.474 62.5976 195.143 73.5899 195.143 73.5899C195.143 73.5899 204.783 73.4864 208.819 78.4869C213.45 72.9692 220.722 69.9086 225.448 71.7708L225.43 71.7363ZM239.993 87.8238C239.993 87.8238 237.884 79.1248 227.41 75.1159C216.936 71.1069 210.524 80.625 210.524 80.625C210.524 80.625 219.759 83.3752 222.143 89.3498C228.202 85.4185 236.051 84.677 240.01 87.8583L239.993 87.8238ZM251.182 100.282C251.182 100.282 259.943 92.7984 256.655 85.0391C253.368 77.2799 253.764 70.5983 255.468 68.6585C248.29 67.7963 240.94 78.8231 245.295 86.0737C249.65 93.3243 251.569 96.2469 251.182 100.316V100.282ZM257.8 121.559C257.8 121.559 267.982 116.145 266.458 107.817C264.935 99.4886 266.76 93.0915 268.842 91.5742C262.026 89.1774 252.49 98.3333 255.149 106.36C257.809 114.386 259.074 117.663 257.8 121.594V121.559ZM259.315 143.88C259.315 143.88 270.34 140.526 270.435 132.06C270.529 123.594 273.542 117.663 275.883 116.542C269.652 112.878 258.514 119.99 259.616 128.422C260.718 136.854 261.312 140.302 259.315 143.915V143.88ZM253.884 166.96C253.884 166.96 265.408 167.132 268.085 159.106C270.762 151.079 275.444 146.355 278 146.036C273.189 140.639 260.399 144.027 258.885 152.355C257.37 160.683 256.888 164.158 253.884 166.994V166.96ZM242.558 188.651C242.558 188.651 253.643 191.945 258.334 184.944C263.024 177.943 268.834 174.641 271.39 175.021C268.197 168.529 254.969 168.356 251.276 175.978C247.584 183.599 246.207 186.772 242.558 188.686V188.651ZM226.102 206.929C226.102 206.929 235.974 212.877 242.317 207.282C248.66 201.687 255.072 199.954 257.456 200.963C255.993 193.876 243.238 190.375 237.747 196.816C232.255 203.256 230.13 205.989 226.102 206.929ZM207.167 218.507C207.167 218.507 214.388 227.491 222.263 224.439C230.138 221.387 236.765 221.973 238.616 223.74C239.683 216.585 228.907 208.894 221.54 213.041C214.173 217.188 211.229 219.016 207.167 218.507ZM185.168 225.99C185.168 225.99 190.582 236.172 198.887 234.612C207.193 233.051 213.588 234.914 215.111 237C217.495 230.172 208.355 220.619 200.342 223.292C192.329 225.965 189.093 227.292 185.134 225.99H185.168ZM250.674 108.886C250.674 108.886 251.784 100.006 243.41 92.5053C235.035 85.0046 225.671 91.6431 225.671 91.6431C225.671 91.6431 233.331 97.4971 233.417 103.929C240.466 102.411 248.066 104.515 250.639 108.886H250.674ZM255.407 130C255.407 130 257.989 121.43 250.941 112.671C243.892 103.911 233.581 108.895 233.581 108.895C233.581 108.895 240.165 115.938 239.21 122.301C246.405 121.93 253.548 125.258 255.364 130H255.407ZM253.746 153.648C253.746 153.648 259.392 146.751 256.251 135.931C253.109 125.111 241.62 125.767 241.62 125.767C241.62 125.767 245.011 134.802 241.697 140.311C248.479 142.751 253.841 148.57 253.712 153.648H253.746ZM244.279 175.297C244.279 175.297 252.102 170.986 253.196 159.778C254.289 148.57 243.436 144.915 243.436 144.915C243.436 144.915 243.22 154.562 238.099 158.442C243.461 163.244 246.241 170.632 244.227 175.297H244.279ZM232.109 191.988C232.109 191.988 240.552 189.039 243.496 178.193C246.439 167.348 236.369 161.899 236.369 161.899C236.369 161.899 234.536 171.382 228.839 174.34C233.323 179.978 234.82 187.729 232.057 191.988H232.109ZM217.177 205.23C217.177 205.23 225.06 203.954 229.355 194.884C233.65 185.815 225.645 179.443 225.645 179.443C225.645 179.443 222.556 187.487 217.039 189.194C220.129 194.876 220.223 201.919 217.125 205.23H217.177ZM200.196 214.714C200.196 214.714 207.942 215.412 214.242 207.817C220.542 200.221 214.44 192.298 214.44 192.298C214.44 192.298 209.568 199.195 203.957 199.48C205.446 205.653 203.879 212.369 200.144 214.757L200.196 214.714ZM182.767 220.249C182.767 220.249 190.048 222.266 197.312 216.162C204.576 210.058 200.135 201.428 200.135 201.428C200.135 201.428 194.317 207.127 188.947 206.437C189.368 212.567 186.683 218.671 182.715 220.292L182.767 220.249Z" fill="#20AD96"/>
<path d="M155.505 72L157.27 76.9653H163L158.369 80.0347L160.135 85L155.505 81.9306L150.865 85L152.64 80.0347L148 76.9653H153.73L155.505 72Z" fill="#1C413A"/>
</svg>
