<svg width="56" height="56" viewBox="0 0 56 56" fill="none" xmlns="http://www.w3.org/2000/svg">
<rect x="4" y="4" width="48" height="48" rx="24" fill="#FAF8F6"/>
<rect x="4" y="4" width="48" height="48" rx="24" stroke="#FAF8F6" stroke-width="8"/>
<g clip-path="url(#clip0_508_5259)">
<path d="M33.5003 21.5834H22.5003C21.4878 21.5834 20.667 22.4042 20.667 23.4167V34.4167C20.667 35.4292 21.4878 36.25 22.5003 36.25H33.5003C34.5129 36.25 35.3337 35.4292 35.3337 34.4167V23.4167C35.3337 22.4042 34.5129 21.5834 33.5003 21.5834Z" stroke="#3F3A64" stroke-width="2" stroke-linecap="round" stroke-linejoin="round"/>
<path d="M31.667 19.75V23.4167" stroke="#3F3A64" stroke-width="2" stroke-linecap="round" stroke-linejoin="round"/>
<path d="M24.333 19.75V23.4167" stroke="#3F3A64" stroke-width="2" stroke-linecap="round" stroke-linejoin="round"/>
<path d="M20.667 27.0834H35.3337" stroke="#3F3A64" stroke-width="2" stroke-linecap="round" stroke-linejoin="round"/>
<path d="M26.1663 30.75H24.333V32.5833H26.1663V30.75Z" stroke="#20AD96" stroke-linecap="round" stroke-linejoin="round"/>
</g>
<defs>
<clipPath id="clip0_508_5259">
<rect width="22" height="22" fill="white" transform="translate(17 17)"/>
</clipPath>
</defs>
</svg>
