<svg width="56" height="56" viewBox="0 0 56 56" fill="none" xmlns="http://www.w3.org/2000/svg">
<rect x="4" y="4" width="48" height="48" rx="24" fill="#FAF8F6"/>
<rect x="4" y="4" width="48" height="48" rx="24" stroke="#FAF8F6" stroke-width="8"/>
<g clip-path="url(#clip0_508_5271)">
<path d="M27.9997 19.75C29.2911 19.7498 30.5646 20.0527 31.7176 20.6344C32.8706 21.2161 33.8709 22.0603 34.6381 23.0992C35.4053 24.1381 35.9178 25.3426 36.1345 26.6157C36.3512 27.8888 36.266 29.195 35.8858 30.4292C36.2305 31.1929 36.3346 32.0434 36.184 32.8677C36.0334 33.692 35.6354 34.4508 35.043 35.0433C34.4505 35.6358 33.6916 36.0338 32.8674 36.1843C32.0431 36.3349 31.1925 36.2309 30.4289 35.8861C28.995 36.3284 27.4676 36.3713 26.0112 36.0101C24.5548 35.6489 23.2245 34.8973 22.1634 33.8363C21.1024 32.7753 20.3508 31.4449 19.9896 29.9885C19.6284 28.5321 19.6713 27.0047 20.1136 25.5709C19.7686 24.8072 19.6643 23.9565 19.8147 23.132C19.9652 22.3076 20.3631 21.5485 20.9557 20.9559C21.5482 20.3632 22.3072 19.9651 23.1316 19.8146C23.956 19.664 24.8068 19.7681 25.5705 20.113C26.3576 19.8713 27.1764 19.749 27.9997 19.75V19.75Z" stroke="#3F3A64" stroke-width="2" stroke-linecap="round" stroke-linejoin="round"/>
<path d="M24.333 30.2916C24.7913 32.125 26.4945 32.5833 27.9997 32.5833C30.6626 32.5833 31.6663 31.4952 31.6663 30.2916C31.6663 28.9139 29.8999 28 27.9997 28C26.0994 28 24.333 27.086 24.333 25.7083C24.333 24.5047 25.3368 23.4166 27.9997 23.4166C29.5048 23.4166 31.208 23.875 31.6663 25.7083" stroke="#20AD96" stroke-width="2" stroke-linecap="round" stroke-linejoin="round"/>
</g>
<defs>
<clipPath id="clip0_508_5271">
<rect width="22" height="22" fill="white" transform="translate(17 17)"/>
</clipPath>
</defs>
</svg>
